<svg width="24" height="24" viewBox="0 0 24 24" fill="none" xmlns="http://www.w3.org/2000/svg">
<path fill-rule="evenodd" clip-rule="evenodd" d="M12.7977 4.40156C12.7977 3.95974 12.4395 3.60156 11.9977 3.60156C11.5558 3.60156 11.1977 3.95974 11.1977 4.40156V11.2016H4.39766C3.95583 11.2016 3.59766 11.5597 3.59766 12.0016C3.59766 12.4434 3.95583 12.8016 4.39766 12.8016H11.1977V19.6016C11.1977 20.0433 11.5558 20.4016 11.9977 20.4016C12.4395 20.4016 12.7977 20.0433 12.7977 19.6016V12.8016H19.5977C20.0394 12.8016 20.3977 12.4434 20.3977 12.0016C20.3977 11.5597 20.0394 11.2016 19.5977 11.2016H12.7977V4.40156Z" fill="currentColor"/>
</svg>
