<svg width="24" height="24" viewBox="0 0 24 24" fill="none" xmlns="http://www.w3.org/2000/svg">
<path fill-rule="evenodd" clip-rule="evenodd" d="M6.71922 1.59961H6.68308C6.19021 1.59959 5.76511 1.59958 5.41696 1.63268C5.04844 1.66772 4.68442 1.74542 4.34522 1.95327C4.02229 2.15116 3.75079 2.42268 3.55288 2.74561C3.34503 3.08481 3.26733 3.44883 3.23229 3.81735C3.19919 4.16548 3.1992 4.59057 3.19922 5.08342V5.11961V18.8796V18.9158C3.1992 19.4087 3.19919 19.8337 3.23229 20.1818C3.26733 20.5503 3.34503 20.9143 3.55288 21.2535C3.75079 21.5766 4.02229 21.8481 4.34522 22.046C4.68442 22.2538 5.04844 22.3314 5.41696 22.3665C5.76511 22.3996 6.19021 22.3996 6.68308 22.3996H6.71922H17.2792H17.3154C17.8082 22.3996 18.2333 22.3996 18.5815 22.3665C18.9499 22.3314 19.3139 22.2538 19.6531 22.046C19.9762 21.8481 20.2477 21.5766 20.4456 21.2535C20.6535 20.9143 20.7311 20.5503 20.7661 20.1818C20.7992 19.8337 20.7992 19.4086 20.7992 18.9158V18.8796V5.11961V5.08347C20.7992 4.59059 20.7992 4.1655 20.7661 3.81735C20.7311 3.44883 20.6535 3.08481 20.4456 2.74561C20.2477 2.42268 19.9762 2.15116 19.6531 1.95327C19.3139 1.74542 18.9499 1.66772 18.5815 1.63268C18.2333 1.59958 17.8082 1.59959 17.3154 1.59961H17.2792H6.71922ZM5.18122 3.3175C5.22677 3.28958 5.31701 3.2494 5.56842 3.2255C5.83173 3.20046 6.17999 3.19961 6.71922 3.19961H17.2792C17.8184 3.19961 18.1667 3.20046 18.4301 3.2255C18.6815 3.2494 18.7717 3.28958 18.8173 3.3175C18.9248 3.38347 19.0154 3.47396 19.0813 3.58161C19.1093 3.62716 19.1495 3.7174 19.1733 3.96881C19.1984 4.23212 19.1992 4.58038 19.1992 5.11961V18.8796C19.1992 19.4188 19.1984 19.7671 19.1733 20.0305C19.1495 20.2818 19.1093 20.3721 19.0813 20.4177C19.0154 20.5252 18.9248 20.6158 18.8173 20.6817C18.7717 20.7097 18.6815 20.7498 18.4301 20.7737C18.1667 20.7988 17.8184 20.7996 17.2792 20.7996H6.71922C6.17999 20.7996 5.83173 20.7988 5.56842 20.7737C5.31701 20.7498 5.22677 20.7097 5.18122 20.6817C5.07357 20.6158 4.98308 20.5252 4.91711 20.4177C4.8892 20.3721 4.84901 20.2818 4.82511 20.0305C4.80007 19.7671 4.79922 19.4188 4.79922 18.8796V5.11961C4.79922 4.58038 4.80007 4.23212 4.82511 3.96881C4.84901 3.7174 4.8892 3.62716 4.91711 3.58161C4.98308 3.47396 5.07357 3.38347 5.18122 3.3175ZM7.99922 15.9996C7.5574 15.9996 7.19922 16.3578 7.19922 16.7996C7.19922 17.2414 7.5574 17.5996 7.99922 17.5996H12.7992C13.241 17.5996 13.5992 17.2414 13.5992 16.7996C13.5992 16.3578 13.241 15.9996 12.7992 15.9996H7.99922ZM7.19922 11.9996C7.19922 11.5578 7.5574 11.1996 7.99922 11.1996H15.9992C16.441 11.1996 16.7992 11.5578 16.7992 11.9996C16.7992 12.4414 16.441 12.7996 15.9992 12.7996H7.99922C7.5574 12.7996 7.19922 12.4414 7.19922 11.9996ZM7.99922 6.39961C7.5574 6.39961 7.19922 6.75779 7.19922 7.19961C7.19922 7.64143 7.5574 7.99961 7.99922 7.99961H15.9992C16.441 7.99961 16.7992 7.64143 16.7992 7.19961C16.7992 6.75779 16.441 6.39961 15.9992 6.39961H7.99922Z" fill="currentColor"/>
</svg>
