<svg width="24" height="24" viewBox="0 0 24 24" fill="none" xmlns="http://www.w3.org/2000/svg">
<path d="M6.66699 20V4H12.2609C13.1684 4 13.9921 4.08791 14.7318 4.26374C15.4792 4.43956 16.116 4.70696 16.6422 5.06593C17.1684 5.42491 17.5726 5.87912 17.8548 6.42857C18.1446 6.97802 18.2895 7.62637 18.2895 8.37363C18.2819 8.85714 18.1903 9.31502 18.0149 9.74725C17.8472 10.1722 17.5955 10.5458 17.2599 10.8681C17.0769 11.044 16.8672 11.2051 16.6308 11.3516C16.402 11.4982 16.1465 11.6227 15.8643 11.7253V11.7363C16.4134 11.8828 16.8481 12.0696 17.1684 12.2967C17.4964 12.5238 17.7709 12.7875 17.9921 13.0879C18.2209 13.4103 18.3886 13.7619 18.4954 14.1429C18.6098 14.5165 18.667 14.9048 18.667 15.3077C18.667 16.0769 18.5297 16.7546 18.2552 17.3407C17.9806 17.9267 17.5879 18.4176 17.0769 18.8132C16.5659 19.2088 15.9444 19.5055 15.2123 19.7033C14.4801 19.9011 13.6565 20 12.7413 20H6.66699ZM9.89292 12.9451V17.5055H12.7528C13.1722 17.5055 13.5459 17.4542 13.8739 17.3516C14.2094 17.2491 14.4878 17.1099 14.7089 16.9341C14.953 16.7363 15.136 16.4982 15.258 16.2198C15.3877 15.9414 15.4525 15.63 15.4525 15.2857C15.4525 14.9267 15.4029 14.6044 15.3038 14.3187C15.2123 14.033 15.0636 13.7912 14.8577 13.5934C14.6517 13.3883 14.3848 13.2308 14.0569 13.1209C13.729 13.011 13.34 12.9524 12.8901 12.9451H9.89292ZM9.89292 10.7143H12.2838C12.7719 10.707 13.2027 10.652 13.5764 10.5495C13.9501 10.4396 14.2514 10.2784 14.4801 10.0659C14.6708 9.89744 14.8157 9.69231 14.9148 9.45055C15.0216 9.20879 15.075 8.93407 15.075 8.62637C15.075 8.30403 15.0292 8.02198 14.9377 7.78022C14.8538 7.53846 14.7242 7.337 14.5488 7.17582C14.32 6.94872 14.0111 6.78388 13.6222 6.68132C13.2409 6.57875 12.7909 6.52381 12.2723 6.51648H9.89292V10.7143Z" fill="currentColor"/>
</svg>
