<svg viewBox="0 0 24 24" fill="none" xmlns="http://www.w3.org/2000/svg">
  <path fill-rule="evenodd" clip-rule="evenodd"
    d="M12.5001 20.5C16.9183 20.5 20.5001 16.9183 20.5001 12.5C20.5001 8.08172 16.9183 4.5 12.5001 4.5C8.08178 4.5 4.50006 8.08172 4.50006 12.5C4.50006 12.7761 4.2762 13 4.00006 13C3.72392 13 3.50006 12.7761 3.50006 12.5C3.50006 7.52944 7.5295 3.5 12.5001 3.5C17.4706 3.5 21.5001 7.52944 21.5001 12.5C21.5001 17.4706 17.4706 21.5 12.5001 21.5C10.0093 21.5 7.75409 20.4875 6.1251 18.8529C5.93017 18.6573 5.93072 18.3408 6.12632 18.1458C6.32191 17.9509 6.6385 17.9515 6.83342 18.1471C8.28246 19.6011 10.2858 20.5 12.5001 20.5Z"
    fill="currentColor" />
  <path fill-rule="evenodd" clip-rule="evenodd"
    d="M4.12812 12.2235L2.23195 8.94942C2.09356 8.71046 1.78765 8.62893 1.54869 8.76733C1.30973 8.90572 1.22821 9.21163 1.3666 9.45059L3.44554 13.0402C3.66644 13.4216 4.18063 13.5064 4.5123 13.2161L7.52857 10.5762C7.73637 10.3944 7.75739 10.0785 7.57553 9.8707C7.39366 9.66291 7.07778 9.64189 6.86998 9.82375L4.12812 12.2235Z"
    fill="currentColor" />
</svg>
