<svg viewBox="0 0 24 24" fill="none" xmlns="http://www.w3.org/2000/svg">
  <path fill-rule="evenodd" clip-rule="evenodd"
    d="M12 2.5C12.2761 2.5 12.5 2.72386 12.5 3V18C12.5 18.2761 12.2761 18.5 12 18.5C11.7239 18.5 11.5 18.2761 11.5 18V3C11.5 2.72386 11.7239 2.5 12 2.5Z"
    fill="currentColor" />
  <path fill-rule="evenodd" clip-rule="evenodd"
    d="M4.5 21C4.5 20.7239 4.72386 20.5 5 20.5H19C19.2761 20.5 19.5 20.7239 19.5 21C19.5 21.2761 19.2761 21.5 19 21.5H5C4.72386 21.5 4.5 21.2761 4.5 21Z"
    fill="currentColor" />
  <path fill-rule="evenodd" clip-rule="evenodd"
    d="M4.59317 13.7094C4.75368 13.4847 5.06595 13.4327 5.29066 13.5932L11.7094 18.178C11.8833 18.3022 12.1168 18.3022 12.2907 18.178L18.7094 13.5932C18.9341 13.4327 19.2464 13.4847 19.4069 13.7094C19.5674 13.9341 19.5154 14.2464 19.2907 14.4069L12.8719 18.9917C12.3503 19.3643 11.6497 19.3643 11.1282 18.9917L4.70942 14.4069C4.48471 14.2464 4.43267 13.9341 4.59317 13.7094Z"
    fill="currentColor" />
</svg>
