<svg viewBox="0 0 24 24" fill="none" xmlns="http://www.w3.org/2000/svg">
  <path
    d="M6.5 2.6C6.5 2.54477 6.54477 2.5 6.6 2.5L17.4 2.5C17.4552 2.5 17.5 2.54477 17.5 2.6L17.5 4.8C17.5 5.1866 17.1866 5.5 16.8 5.5L7.2 5.5C6.8134 5.5 6.5 5.1866 6.5 4.8L6.5 2.6Z"
    stroke="currentColor" />
  <path
    d="M4.5 15.8C4.5 15.082 5.08203 14.5 5.8 14.5L18.2 14.5C18.918 14.5 19.5 15.082 19.5 15.8L19.5 17.9C19.5 17.9552 19.4552 18 19.4 18L4.6 18C4.54477 18 4.5 17.9552 4.5 17.9L4.5 15.8Z"
    stroke="currentColor" />
  <path d="M7.60532 14.5L9.33608 5.5L14.6639 5.5L16.3947 14.5L7.60532 14.5Z" stroke="currentColor" />
  <rect x="11.5" y="18" width="1" height="6" fill="currentColor" />
</svg>
