<svg viewBox="0 0 24 24" fill="none" xmlns="http://www.w3.org/2000/svg">
  <path fill-rule="evenodd" clip-rule="evenodd"
    d="M6.33323 4.26398C7.5666 3.43987 9.01664 3 10.5 3V3.49624L10.5 3C12.4891 3.00013 14.3967 3.79034 15.8032 5.19683C17.2097 6.60332 17.9999 8.51089 18 10.5V10.5C18 11.9834 17.5601 13.4334 16.736 14.6668C15.9119 15.9001 14.7406 16.8614 13.3701 17.4291C11.9997 17.9967 10.4917 18.1453 9.03683 17.8559C7.58197 17.5665 6.2456 16.8522 5.1967 15.8033C4.14781 14.7544 3.4335 13.418 3.14411 11.9632C2.85472 10.5083 3.00325 9.00032 3.57091 7.62987C4.13856 6.25943 5.09986 5.08809 6.33323 4.26398ZM10.5 4C12.2239 4.00012 13.8771 4.68497 15.0961 5.90394C16.315 7.1229 16.9999 8.77613 17 10.5M10.5 4C9.2144 4.00001 7.95771 4.38122 6.8888 5.09545C5.81988 5.80968 4.98676 6.82484 4.49479 8.01256C4.00282 9.20028 3.8741 10.5072 4.1249 11.7681C4.3757 13.029 4.99477 14.1872 5.90381 15.0962C6.81285 16.0052 7.97104 16.6243 9.23192 16.8751C10.4928 17.1259 11.7997 16.9972 12.9874 16.5052C14.1752 16.0132 15.1903 15.1801 15.9046 14.1112C16.6188 13.0423 17 11.7856 17 10.5"
    fill="currentColor" />
  <path fill-rule="evenodd" clip-rule="evenodd"
    d="M15.1464 15.1464C15.3417 14.9512 15.6583 14.9512 15.8536 15.1464L20.8536 20.1464C21.0488 20.3417 21.0488 20.6583 20.8536 20.8536C20.6583 21.0488 20.3417 21.0488 20.1464 20.8536L15.1464 15.8536C14.9512 15.6583 14.9512 15.3417 15.1464 15.1464Z"
    fill="currentColor" />
</svg>
